<?xml version="1.0" ?><svg data-name="Layer 1" id="Layer_1" viewBox="0 0 272 272" xmlns="http://www.w3.org/2000/svg"><defs><style>.cls-1{fill:#424242;}.cls-2{fill:#f3f4f2;}</style></defs><title/><rect class="cls-1" height="8" width="136" x="68" y="68"/><rect class="cls-1" height="8" width="136" x="68" y="92"/><rect class="cls-1" height="8" width="136" x="68" y="116"/><rect class="cls-1" height="8" width="136" x="68" y="140"/><rect class="cls-1" height="8" width="136" x="68" y="164"/><rect class="cls-1" height="8" width="136" x="68" y="188"/><rect class="cls-1" height="8" width="136" x="68" y="212"/><path class="cls-1" d="M216,40H192V16l-8-8H48V264H224V48Zm0,216H56V16H184V48h32Z"/><rect class="cls-2" height="8" width="136" x="68" y="68"/><rect class="cls-2" height="8" width="136" x="68" y="92"/><rect class="cls-2" height="8" width="136" x="68" y="116"/><rect class="cls-2" height="8" width="136" x="68" y="140"/><rect class="cls-2" height="8" width="136" x="68" y="164"/><rect class="cls-2" height="8" width="136" x="68" y="188"/><rect class="cls-2" height="8" width="136" x="68" y="212"/><path class="cls-1" d="M184,8V48h40Zm8,32V27.31L204.69,40Z"/><rect class="cls-1" height="8" width="136" x="68" y="68"/><rect class="cls-1" height="8" width="136" x="68" y="92"/><rect class="cls-1" height="8" width="136" x="68" y="116"/><rect class="cls-1" height="8" width="136" x="68" y="140"/><rect class="cls-1" height="8" width="136" x="68" y="164"/><rect class="cls-1" height="8" width="136" x="68" y="188"/><rect class="cls-1" height="8" width="136" x="68" y="212"/></svg>