<?xml version="1.0" ?><svg data-name="Layer 1" id="Layer_1" viewBox="0 0 32 32" xmlns="http://www.w3.org/2000/svg"><path d="M7,25A7,7,0,0,1,7,11a1,1,0,0,1,0,2A5,5,0,0,0,7,23a1,1,0,0,1,0,2Z"/><path d="M25,25a1,1,0,0,1,0-2,5,5,0,0,0,0-10,1,1,0,0,1,0-2,7,7,0,0,1,0,14Z"/><path d="M25,13a1,1,0,0,1-1-1A8,8,0,0,0,8,12a1,1,0,0,1-2,0,10,10,0,0,1,20,0A1,1,0,0,1,25,13Z"/><path d="M21,22H11a1,1,0,0,1,0-2H21a1,1,0,0,1,0,2Z"/><path d="M21,28H11a1,1,0,0,1,0-2H21a1,1,0,0,1,0,2Z"/><path d="M21,28a1,1,0,0,1-.83-.45l-2-3a1,1,0,1,1,1.66-1.1l2,3a1,1,0,0,1-.28,1.38A.94.94,0,0,1,21,28Z"/><path d="M19,31a.94.94,0,0,1-.55-.17,1,1,0,0,1-.28-1.38l2-3a1,1,0,0,1,1.66,1.1l-2,3A1,1,0,0,1,19,31Z"/><path d="M13,25a1,1,0,0,1-.83-.45l-2-3a1,1,0,0,1,1.66-1.1l2,3a1,1,0,0,1-.28,1.38A.94.94,0,0,1,13,25Z"/><path d="M11,22a.94.94,0,0,1-.55-.17,1,1,0,0,1-.28-1.38l2-3a1,1,0,0,1,1.66,1.1l-2,3A1,1,0,0,1,11,22Z"/><path d="M9,25H7a1,1,0,0,1,0-2H9a1,1,0,0,1,0,2Z"/><path d="M25,25H23a1,1,0,0,1,0-2h2a1,1,0,0,1,0,2Z"/></svg>